<svg xmlns="http://www.w3.org/2000/svg" xmlns:xlink="http://www.w3.org/1999/xlink" id="图层_1" x="0" y="0" version="1.1" viewBox="0 0 20 20" xml:space="preserve" style="enable-background:new 0 0 20 20"><style type="text/css">.st0{fill-rule:evenodd;clip-rule:evenodd;fill:#fff;fill-opacity:0}.st1{fill:#0fd15d}</style><title>Icon / Brand 20*20 / DaoCloud</title><g id="Icon-_x2F_-Brand-20_x2A_20-_x2F_-DaoCloud"><rect id="bg-white" width="20" height="20" class="st0"/><g id="DaoCloud_logo_only_cube" transform="translate(1.000000, 0.000000)"><polygon id="Path" points="9 4.2 13.4 2 9 0 4.6 2" class="st1"/><polygon id="Path_1_" points="4.5 10.3 4.3 6.6 7.5 5 2.9 2.7 0 4 .4 7.5" class="st1"/><polygon id="Path_2_" points="17.6 7.5 18 4 15 2.7 10.5 5 13.8 6.6 13.5 10.3" class="st1"/><polygon id="Path_3_" points="13.4 12.1 13.1 16.8 16.8 14 17.4 9.3" class="st1"/><polygon id="Path_4_" points="4.6 12.1 .6 9.3 1.1 14 4.9 16.8" class="st1"/><polygon id="Path_5_" points="12 13 9 15.1 6 13 6.3 17.9 9 20 11.6 17.9" class="st1"/></g></g></svg>