<svg xmlns="http://www.w3.org/2000/svg" xmlns:svg="http://www.w3.org/2000/svg" id="svg33" width="813" height="431" version="1.1" viewBox="0 0 813 431"><title id="title1">mspider-arch</title><g id="页面-1" fill="none" fill-rule="evenodd" stroke="none" stroke-width="1"><rect id="矩形" width="100" height="430" x=".5" y=".5" fill="#CFE8D2" stroke="#979797"/><rect id="rect1" width="100" height="430" x="712.5" y=".5" fill="#FFCCCB" stroke="#979797"/><rect id="rect2" width="510" height="101" x="151.5" y=".5" fill="#F4F4F4" stroke="#979797"/><g id="编组" transform="translate(238.000000, 42.000000)"><g id="矩形-2" fill="#FFF" stroke="#979797"><rect id="rect3" width="94" height="40" x="-.5" y="-.5"/></g><text id="注入管理" fill="#060606" font-family="PingFangSC-Regular, 'PingFang SC'" font-size="15" font-weight="normal"><tspan id="tspan3" x="17" y="25">Injection</tspan></text></g><rect id="rect4" width="510" height="101" x="151.5" y="140.5" fill="#D7E8FD" stroke="#979797"/><g id="g6" transform="translate(178.000000, 177.000000)"><g id="g5" fill="#FFF" stroke="#979797"><rect id="rect5" width="94" height="40" x="-.5" y="-.5"/></g><text id="多集群管理" x="-8.218" fill="#060606" font-family="PingFangSC-Regular, 'PingFang SC'" font-size="15" font-weight="normal"><tspan id="tspan5" x="1.782" y="25">Multi-cluster</tspan></text></g><g id="g8" transform="translate(294.000000, 177.000000)"><g id="g7" fill="#FFF" stroke="#979797"><rect id="rect6" width="94" height="40" x="-.5" y="-.5"/></g><text id="控制平面" x="-14.496" y="1.141" fill="#060606" font-family="PingFangSC-Regular, 'PingFang SC'" font-size="15" font-weight="normal"><tspan id="tspan7" x=".504" y="26.141">Control Plane</tspan></text></g><g id="g10" transform="translate(403.000000, 177.000000)"><g id="g9" fill="#fff" stroke="#979797" transform="matrix(1.2706631,0,0,0.99686331,-1.6282058,-0.39540233)"><rect id="rect8" width="94" height="40" x="-.5" y="-.5"/></g><text id="注册发现" x="-14.154" y="-.228" fill="#060606" font-family="PingFangSC-Regular, 'PingFang SC'" font-size="15" font-weight="normal"><tspan id="tspan9" x=".846" y="24.772">Reg &amp; Discovery</tspan></text></g><rect id="rect10" width="510" height="150" x="151.5" y="280.5" fill="#D7E8FD" stroke="#979797"/><g id="g12" transform="translate(238.000000, 323.000000)"><g id="g11" fill="#FFF" stroke="#979797"><rect id="rect11" width="94" height="40" x="-.5" y="-.5"/></g><text id="认证、授权" x="-5.022" y=".913" fill="#060606" font-family="PingFangSC-Regular, 'PingFang SC'" font-size="15" font-weight="normal"><tspan id="tspan11" x="4.978" y="25.913">Authz Authn</tspan></text></g><g id="g14" transform="translate(361.000000, 374.000000)"><g id="g13" fill="#FFF" stroke="#979797"><rect id="rect12" width="94" height="40" x="-.5" y="-.5"/></g><text id="租户、空间" fill="#060606" font-family="PingFangSC-Regular, 'PingFang SC'" font-size="15" font-weight="normal"><tspan id="tspan13" x="10" y="25">Workspace</tspan></text></g><g id="g16" transform="translate(238.000000, 374.000000)"><g id="g15" fill="#FFF" stroke="#979797"><rect id="rect14" width="94" height="40" x="-.5" y="-.5"/></g><text id="观测展示" x="3.881" y="-.457" fill="#060606" font-family="PingFangSC-Regular, 'PingFang SC'" font-size="15" font-weight="normal"><tspan id="tspan15" x="18.881" y="24.543">Insight</tspan></text></g><g id="g18" transform="translate(360.000000, 323.000000)"><g id="g17" fill="#FFF" stroke="#979797"><rect id="rect16" width="94" height="40" x="-.5" y="-.5"/></g><text id="网格管理" x="11.414" y="-.457" fill="#060606" font-family="PingFangSC-Regular, 'PingFang SC'" font-size="15" font-weight="normal"><tspan id="tspan17" x="27.414" y="24.543">Mesh</tspan></text></g><g id="g20" transform="translate(482.000000, 323.000000)"><g id="g19" fill="#FFF" stroke="#979797"><rect id="rect18" width="94" height="40" x="-.5" y="-.5"/></g><text id="策略控制" x="4.337" fill="#060606" font-family="PingFangSC-Regular, 'PingFang SC'" font-size="15" font-weight="normal"><tspan id="tspan19" x="20.337" y="25">Policies</tspan></text></g><g id="g22" transform="translate(482.000000, 374.000000)"><g id="g21" fill="#FFF" stroke="#979797"><rect id="rect20" width="94" height="40" x="-.5" y="-.5"/></g><text id="转换适配" x="-5.479" fill="#060606" font-family="PingFangSC-Regular, 'PingFang SC'" font-size="15" font-weight="normal"><tspan id="tspan21" x="10.521" y="25">Conversion</tspan></text></g><g id="g24" transform="translate(532,177)"><g id="g23" fill="#fff" stroke="#979797"><rect id="rect22" width="94" height="40" x="-.5" y="-.5"/></g><text id="协议适配" fill="#060606" font-family="PingFangSC-Regular, 'PingFang SC'" font-size="15" font-weight="normal"><tspan id="tspan23" x="15" y="25">Protocols</tspan></text></g><g id="g25" fill="#fff" stroke="#979797" transform="matrix(1.0820057,0,0,0.99900803,360.06084,43.019343)"><rect id="rect24" width="94" height="40" x="-.5" y="-.5"/></g><g id="g26" fill="#FFF" stroke="#979797" transform="translate(482.000000, 43.000000)"><rect id="rect25" width="94" height="40" x="-.5" y="-.5"/></g><text id="被托管集群网格" fill="#060606" font-family="PingFangSC-Regular, 'PingFang SC'" font-size="15" font-weight="normal"><tspan id="tspan26" x="350" y="21">Hosted Cluster Mesh</tspan></text><text id="托管网格" fill="#060606" font-family="PingFangSC-Regular, 'PingFang SC'" font-size="15" font-weight="normal"><tspan id="tspan27" x="373" y="164">Hosted Mesh</tspan></text><text id="全局管理模块" fill="#060606" font-family="PingFangSC-Regular, 'PingFang SC'" font-size="15" font-weight="normal"><tspan id="tspan28" x="361" y="306">Global Managemen</tspan></text><text id="观测模块" x="-269.464" y="-167.363" fill="#060606" font-family="PingFangSC-Regular, 'PingFang SC'" font-size="15" font-weight="normal" transform="rotate(-89.10212)"><tspan id="tspan29" x="-256.464" y="53.637">Observability</tspan></text><text id="观测模块-4" x="-309.94" y="552.316" fill="#060606" font-family="PingFangSC-Regular, 'PingFang SC'" font-size="15" font-weight="normal" transform="rotate(-89.10212)"><tspan id="tspan29-3" x="-296.94" y="773.316">Microservice and Workbench</tspan></text><text id="xDS-转发" x="-11.622" y="-.646" fill="#060606" font-family="PingFangSC-Regular, 'PingFang SC'" font-size="15" font-weight="normal"><tspan id="tspan32" x="365.378" y="67.354">xDS Forward</tspan></text><text id="虚拟机管理" x="26.473" y=".646" fill="#060606" font-family="PingFangSC-Regular, 'PingFang SC'" font-size="15" font-weight="normal"><tspan id="tspan33" x="517.473" y="68.646">VM</tspan></text></g></svg>